<svg width="256" height="256" viewBox="0 0 256 256" fill="none" xmlns="http://www.w3.org/2000/svg">
<g clip-path="url(#clip0_46_24)">
<path d="M85.9621 118.745C109.898 100.978 123.135 90.6408 149.432 93.6866C175.728 96.7324 185.842 111.454 188.876 130.236C191.91 149.018 196.629 179.729 187.19 190.389C177.75 201.049 166.962 206.947 149.432 204.917C131.901 202.887 117.567 187.924 105.856 181.494C102.721 179.773 99.3922 178.364 96.1361 177.151C117.272 186.432 130.976 205.006 128.937 214.693C126.502 226.259 109.891 234.204 71.8464 226.195C33.8016 218.185 29.9727 198.625 32.8242 188.1C35.6763 177.576 54.7549 166.972 83.0594 172.931C83.6565 173.057 84.2498 173.194 84.8393 173.335C80.8557 172.005 77.7646 170.811 76.4502 169.374C73.1613 165.78 62.0255 136.511 85.9621 118.745Z" fill="white"/>
<path d="M194.361 195.755C201.626 195.991 214.998 201.152 216.444 211.375C217.889 221.598 209.786 225.996 193.211 228.872C176.636 231.748 167.541 222.851 167.882 211.57C168.517 200.871 187.096 195.519 194.361 195.755Z" fill="white"/>
<path d="M135.717 41.0142C137.531 40.1852 139.464 40.5605 140.046 40.8789C145.241 43.7295 138.711 55.6528 142.231 61.0174C145.752 66.3821 151.955 65.3762 155.141 63.1969C158.326 61.0157 166.206 44.5889 175.593 47.1031C182.154 48.8608 182.87 66.6172 181.323 69.9188C179.776 73.2204 176.884 75.4859 175.029 76.3847C166.326 80.6014 157.94 80.8383 149.45 80.0235C140.786 79.192 133.988 76.4919 130.659 74.1746C125.822 70.8065 120.948 59.5074 127.038 50.2056C129.517 46.4201 133.903 41.8436 135.717 41.0142Z" fill="white"/>
<path fill-rule="evenodd" clip-rule="evenodd" d="M135.716 20.7701C145.89 15.2788 158.389 11.689 175.592 16.6039C193.922 21.8412 201.066 34.3006 202.601 50.204C203.412 58.6081 203.073 68.6264 200.225 76.3832C197.385 84.1202 193.02 89.345 184.721 93.3661C182.907 94.2451 182.537 96.7707 183.984 98.174C184.325 98.5048 184.661 98.8411 184.992 99.1828C193.04 107.509 196.926 118.019 198.645 128.658C200.152 137.988 202.198 150.953 202.601 163.028C202.803 169.07 202.612 175.26 201.604 180.881C201.205 183.105 201.006 184.218 201.175 184.9C201.353 185.623 201.554 185.971 202.091 186.487C202.598 186.974 203.679 187.363 205.841 188.141C208.142 188.969 210.432 190.018 212.588 191.282C218.328 194.646 224.923 200.661 226.242 209.99C226.799 213.934 226.525 218.025 224.845 221.929C223.16 225.845 220.397 228.795 217.253 230.992C211.402 235.08 203.315 237.164 194.903 238.624C184.67 240.399 175.251 238.765 168.208 233.406C163.59 229.892 160.558 225.191 159.065 220.012C158.491 218.021 158.205 217.025 157.825 216.53C157.419 216.001 157.156 215.794 156.547 215.523C155.977 215.27 155.049 215.229 153.193 215.146C151.594 215.075 149.961 214.943 148.292 214.75C146.459 214.537 144.669 214.215 142.924 213.804C140.977 213.344 139.033 214.776 138.621 216.733C136.4 227.278 127.866 234.295 116.269 237.354C104.936 240.344 89.5376 240.033 69.8063 235.879C49.4027 231.583 36.356 223.816 29.0557 213.994C21.6523 204.033 21.1631 193.295 23.2712 185.513C25.8687 175.926 34.7407 168.854 44.9464 165.059C48.4415 163.759 52.2723 162.762 56.397 162.125C58.7066 161.768 59.8614 161.589 60.4956 161.141C61.1281 160.693 61.445 160.273 61.702 159.542C61.9597 158.809 61.8125 157.633 61.5181 155.28C61.2895 153.454 61.1415 151.545 61.1014 149.576C60.8491 137.182 64.9433 122.019 80.0624 110.797C91.7053 102.155 101.931 94.3767 112.664 89.4244C114.283 88.6772 114.684 86.4831 113.55 85.1071C103.898 73.401 105.05 54.946 114.26 40.8774C118.534 34.3495 125.543 26.2614 135.716 20.7701ZM81.0209 182.617C68.4335 179.967 58.5173 181.13 51.8456 183.611C44.7241 186.259 42.6297 189.751 42.3756 190.689C41.6327 193.432 41.6332 197.736 44.9416 202.187C48.354 206.778 56.2447 212.796 73.8849 216.51C92.1972 220.366 104.128 220.088 111.221 218.216C117.622 216.527 118.892 214.013 119.202 212.865C119.221 212.787 119.24 212.574 119.233 212.493C119.197 212.039 119.012 210.753 117.906 208.517C116.499 205.676 114.043 202.231 110.522 198.703C105.82 193.993 99.6292 189.544 92.4609 186.349C89.9897 185.437 87.4589 184.603 84.9384 183.785C84.0152 183.485 83.0652 183.173 82.1162 182.859C81.7527 182.774 81.3874 182.694 81.0209 182.617ZM194.038 205.645C192.252 205.588 187.342 206.405 182.843 208.519C180.692 209.529 179.209 210.578 178.365 211.448C178.158 211.66 178.674 211.129 178.576 211.252C178.322 211.569 177.849 212.933 177.852 213.339C177.853 213.496 177.796 212.946 177.819 213.166C178.035 215.262 178.955 216.709 180.196 217.654C181.76 218.844 185.178 220.222 191.519 219.122C199.68 217.705 203.934 216.151 205.916 214.766C206.013 214.698 206.689 213.153 206.677 213.036C206.668 212.95 206.656 212.858 206.643 212.76C206.516 211.866 205.702 210.189 202.579 208.358C199.51 206.559 195.952 205.708 194.038 205.645ZM148.292 103.519C136.872 102.196 128.824 103.768 120.956 107.398C112.513 111.294 104.152 117.567 91.8601 126.691C83.0434 133.235 80.7361 141.593 80.8904 149.173C80.9698 153.069 81.7214 156.665 82.6059 159.42C82.8876 160.297 83.1711 161.05 83.4294 161.665C83.6269 162.136 84.0041 162.507 84.4777 162.698C85.3529 163.049 86.3749 163.41 87.5834 163.817C91.8749 164.875 95.9786 166.29 99.8595 167.978C103.36 169.292 107.072 170.873 110.618 172.82C114.12 174.743 117.641 177.2 120.903 179.537C124.316 181.982 127.508 184.339 130.929 186.607C137.789 191.154 144.166 194.345 150.57 195.086C157.957 195.942 163.277 195.07 167.506 193.29C171.793 191.487 175.695 188.442 179.781 183.828C180.406 183.122 181.425 181.267 182.121 177.388C182.788 173.666 182.996 169.003 182.819 163.688C182.463 153.048 180.632 141.266 179.106 131.815C177.79 123.672 175.101 117.43 170.76 112.939C166.505 108.537 159.72 104.843 148.292 103.519ZM140.046 40.8774C139.466 40.5589 137.531 40.1833 135.716 41.0127C133.902 41.8423 129.516 46.4187 127.037 50.204C120.948 59.5056 125.821 70.8047 130.658 74.1731C133.987 76.4904 140.786 79.1904 149.449 80.022C157.939 80.8368 166.326 80.5997 175.029 76.3832C176.883 75.4844 179.775 73.2188 181.322 69.9173C182.869 66.6157 182.153 48.8592 175.592 47.1016C166.205 44.588 158.325 61.0142 155.14 63.1953C151.954 65.3746 145.751 66.3804 142.231 61.0159C138.711 55.6512 145.242 43.7282 140.046 40.8774Z" fill="#191A1D"/>
<path d="M129.448 9.15839C141.976 2.39665 158.03 -2.138 179.218 3.91516C190.742 7.20802 199.745 13.1156 205.995 21.544C212.122 29.8071 214.818 39.4356 215.736 48.9361C216.634 58.2492 216.432 70.5237 212.612 80.9303C210.627 86.3387 207.967 91.0156 204.377 95.0361C203.15 96.4101 202.536 97.0972 202.319 97.6785C202.097 98.2731 202.055 98.6589 202.143 99.2875C202.228 99.902 202.657 100.668 203.514 102.199C207.948 110.118 210.38 118.559 211.671 126.554C213.073 135.228 215.084 147.857 215.689 160.138L215.79 162.588L215.852 165.065C215.901 168.141 215.848 171.334 215.629 174.548C215.562 175.54 215.528 176.036 215.591 176.415C215.723 177.211 216.026 177.768 216.621 178.312C216.906 178.571 217.361 178.824 218.271 179.331L219.262 179.898L219.967 180.32C227.352 184.823 237.256 193.628 239.308 208.142C240.101 213.748 239.821 220.142 237.226 226.526L236.966 227.145C234.12 233.759 229.531 238.511 224.813 241.808C216.39 247.693 205.759 250.134 197.159 251.626C184.35 253.849 170.924 252.055 160.217 243.907C157.918 242.157 155.882 240.215 154.106 238.124C151.369 234.9 150 233.288 149.214 232.986C148.274 232.625 148.021 232.616 147.058 232.913C146.254 233.16 144.771 234.683 141.806 237.727C136.152 243.531 128.774 247.475 121.011 249.732L119.635 250.114C105.477 253.849 87.7651 253.145 67.087 248.791C44.8488 244.109 28.3596 235.179 18.4643 221.866C8.32388 208.223 7.51964 193.19 10.5342 182.063L10.7371 181.346C15.1225 166.384 28.32 157.163 40.3473 152.691L41.5764 152.248C43.4659 151.588 45.4129 151.002 47.4133 150.495C47.7095 150.42 47.9148 150.15 47.9085 149.845C47.5914 134.262 52.864 114.552 72.1982 100.201C79.0398 95.1225 85.9684 89.8791 93.1119 85.2784C94.5037 84.3821 95.1995 83.9339 95.5697 83.4088C95.9317 82.8952 96.0919 82.4665 96.1553 81.8413C96.2202 81.2022 95.9679 80.3361 95.4632 78.6039C91.0591 63.4874 94.9299 46.3119 103.219 33.6494L104.212 32.1722C109.372 24.6729 117.58 15.5646 129.448 9.15839ZM175.592 16.6036C158.389 11.689 145.889 15.278 135.716 20.7692C125.543 26.2605 118.534 34.3493 114.26 40.8771C105.05 54.9456 103.898 73.4007 113.549 85.1069C114.684 86.4829 114.283 88.677 112.664 89.4242C101.931 94.3765 91.705 102.155 80.0622 110.797C64.9432 122.019 60.849 137.182 61.1012 149.576C61.1413 151.545 61.2893 153.454 61.5179 155.28C61.8123 157.632 61.9595 158.809 61.7018 159.542C61.4448 160.273 61.1279 160.693 60.4954 161.14C59.8612 161.589 58.7064 161.768 56.3969 162.124C52.2721 162.762 48.4412 163.759 44.9462 165.059C34.7406 168.854 25.8685 175.926 23.271 185.513C21.1629 193.295 21.6523 204.033 29.0554 213.994C36.3557 223.816 49.4027 231.583 69.8061 235.879C89.5373 240.033 104.936 240.344 116.269 237.354C127.866 234.294 136.4 227.278 138.621 216.732C139.033 214.775 140.977 213.344 142.923 213.803C144.669 214.215 146.459 214.537 148.292 214.75C149.96 214.943 151.594 215.075 153.193 215.146C155.049 215.228 155.977 215.27 156.547 215.523C157.156 215.794 157.419 216.001 157.825 216.53C158.204 217.025 158.491 218.02 159.065 220.012C160.557 225.191 163.59 229.892 168.208 233.406C175.251 238.765 184.67 240.399 194.903 238.624C203.315 237.164 211.402 235.08 217.253 230.991C220.397 228.795 223.16 225.844 224.845 221.929C226.524 218.025 226.799 213.934 226.241 209.99C224.922 200.661 218.328 194.646 212.588 191.281C210.432 190.018 208.142 188.969 205.84 188.141C203.679 187.363 202.598 186.974 202.091 186.487C201.554 185.97 201.353 185.623 201.174 184.9C201.005 184.218 201.205 183.105 201.604 180.88C202.611 175.26 202.803 169.07 202.601 163.028C202.198 150.953 200.152 137.988 198.645 128.657C196.926 118.019 193.039 107.509 184.991 99.1826C184.661 98.8409 184.325 98.5046 183.984 98.1737C182.536 96.7705 182.906 94.2449 184.721 93.3659C193.02 89.3448 197.384 84.12 200.225 76.3829C203.072 68.6262 203.412 58.6079 202.601 50.2038C201.066 34.3004 193.921 21.841 175.592 16.6036ZM51.8454 183.611C58.517 181.13 68.4334 179.967 81.0207 182.617C81.3871 182.694 81.7526 182.774 82.116 182.858C83.0649 183.173 84.0151 183.485 84.9382 183.785C87.4586 184.603 89.9896 185.437 92.4607 186.349C99.6288 189.544 105.819 193.993 110.521 198.703C114.043 202.23 116.499 205.676 117.905 208.517C119.012 210.753 119.197 212.04 119.234 212.494C119.243 212.61 119.229 212.751 119.202 212.865C118.891 214.013 117.622 216.527 111.22 218.216C104.127 220.087 92.1968 220.366 73.8847 216.51C56.2447 212.796 48.3537 206.778 44.9414 202.187C41.6332 197.735 41.6325 193.431 42.3754 190.689C42.6296 189.751 44.7242 186.259 51.8454 183.611ZM194.038 205.645C195.951 205.707 199.51 206.559 202.578 208.358C205.702 210.189 206.516 211.866 206.642 212.76C206.656 212.858 206.668 212.95 206.677 213.036C206.689 213.153 206.013 214.698 205.916 214.766C205.714 214.907 205.454 214.929 205.222 214.845L194.074 210.781C193.987 210.75 193.894 210.8 193.873 210.89C193.87 210.9 193.868 210.912 193.868 210.923L193.73 215.167C193.725 215.338 193.752 215.564 193.793 215.731C194.144 217.156 193.399 218.788 191.953 219.045C191.809 219.071 191.665 219.096 191.518 219.121C185.178 220.221 181.76 218.844 180.196 217.654C178.955 216.709 178.035 215.261 177.819 213.166C177.796 212.945 177.853 213.496 177.852 213.339C177.849 212.933 178.322 211.568 178.576 211.251C178.674 211.129 178.158 211.66 178.364 211.447C179.209 210.578 180.692 209.529 182.842 208.519C187.342 206.405 192.252 205.588 194.038 205.645ZM193.577 214.608C193.594 214.725 193.742 214.714 193.746 214.596L193.746 214.584L193.577 214.608ZM193.836 211.852C193.84 211.734 193.692 211.716 193.672 211.832C193.665 211.873 193.636 212.027 193.601 212.275C193.44 213.536 193.546 214.39 193.577 214.608L193.746 214.584L193.836 211.852ZM78.3016 195.529C73.6312 194.546 69.5857 194.232 66.1799 194.317C65.8979 194.324 65.7569 194.327 64.8046 195.407C64.1803 196.115 63.8631 197.918 64.2083 198.796C64.7348 200.136 64.8673 200.188 65.1324 200.292C68.0536 201.436 71.8053 202.588 76.6038 203.598C79.9199 204.296 82.9534 204.836 85.7211 205.244C87.4501 205.5 88.3147 205.627 89.4558 204.651C90.2763 203.949 90.7792 202.283 90.4845 201.244C90.0747 199.799 89.373 199.469 87.9695 198.808C87.798 198.728 87.6257 198.648 87.4527 198.569C85.3796 197.815 83.206 197.096 80.8644 196.336C80.1255 196.096 79.3718 195.848 78.6157 195.598C78.5139 195.576 78.4092 195.552 78.3016 195.529ZM120.956 107.398C128.824 103.768 136.872 102.196 148.292 103.519C159.72 104.843 166.504 108.537 170.76 112.939C175.101 117.43 177.79 123.672 179.105 131.815C180.632 141.266 182.463 153.048 182.818 163.688C182.996 169.003 182.788 173.665 182.121 177.388C181.425 181.267 180.406 183.122 179.78 183.828C175.695 188.442 171.793 191.486 167.506 193.29C163.276 195.07 157.957 195.942 150.57 195.086C144.166 194.344 137.789 191.154 130.929 186.607C127.508 184.339 124.316 181.982 120.903 179.537C117.641 177.2 114.119 174.742 110.618 172.82C107.072 170.873 103.359 169.292 99.8592 167.978C95.9785 166.29 91.8746 164.875 87.5832 163.817C86.3749 163.41 85.3526 163.049 84.4775 162.697C84.0039 162.507 83.6267 162.136 83.4292 161.665C83.1709 161.049 82.8873 160.296 82.6057 159.419C81.7212 156.665 80.9696 153.068 80.8902 149.173C80.7359 141.593 83.0434 133.235 91.8599 126.691C104.152 117.567 112.513 111.294 120.956 107.398ZM146.775 116.628C137.659 115.572 132.06 116.808 126.486 119.379C119.574 122.569 112.466 127.83 99.7255 137.287C97.1262 139.216 95.8429 141.109 95.1315 142.762C94.3813 144.504 94.0363 146.535 94.0844 148.904C94.0995 149.642 94.107 150.011 94.261 150.48C94.4629 151.095 94.9618 151.77 95.4902 152.144C95.893 152.429 96.3693 152.586 97.3221 152.901C99.8807 153.745 102.367 154.693 104.775 155.729C108.562 157.16 112.792 158.959 116.969 161.252C121.234 163.594 125.324 166.472 128.588 168.81C132.203 171.4 135.063 173.516 138.219 175.608C144.583 179.826 148.838 181.601 152.089 181.977C157.637 182.62 160.609 181.876 162.388 181.127L162.752 180.967C164.212 180.295 165.93 179.149 168.084 177.008C168.241 176.852 168.32 176.773 168.429 176.639C168.662 176.354 168.937 175.828 169.04 175.474C169.088 175.308 169.103 175.225 169.133 175.059C169.573 172.603 169.792 168.962 169.631 164.129L169.553 162.298C169.096 153.077 167.523 142.858 166.079 133.92C165.033 127.449 163.146 124.048 161.272 122.109C159.598 120.378 155.9 117.685 146.775 116.628ZM135.716 41.0125C137.53 40.1832 139.465 40.5587 140.046 40.8771C145.241 43.728 138.711 55.6509 142.23 61.0157C145.751 66.3801 151.954 65.3743 155.14 63.1951C158.325 61.014 166.205 44.5882 175.592 47.1014C182.153 48.859 182.869 66.6155 181.322 69.9171C179.775 73.2186 176.883 75.4842 175.028 76.3829C166.326 80.5994 157.938 80.8365 149.448 80.0218C140.786 79.1902 133.987 76.4901 130.658 74.1729C125.821 70.8042 120.948 59.5052 127.037 50.2038C129.515 46.4186 133.902 41.8424 135.716 41.0125Z" fill="white"/>
</g>
<defs>
<clipPath id="clip0_46_24">
<rect width="256" height="256" rx="48" fill="white"/>
</clipPath>
</defs>
</svg>
